<svg width="24" height="24" viewBox="0 0 24 24" fill="none" xmlns="http://www.w3.org/2000/svg">
<path d="M15.0769 8.92308H13.8462V10.1538H15.0769V8.92308Z" fill="white"/>
<path d="M15.0769 13.8462H13.8462V15.0769H15.0769V13.8462Z" fill="white"/>
<path d="M13.8462 10.1538H12.6154V11.3846H13.8462V10.1538Z" fill="white"/>
<path d="M13.8462 12.6154H12.6154V13.8462H13.8462V12.6154Z" fill="white"/>
<path d="M10.1538 8.92308H8.92308V10.1538H10.1538V8.92308Z" fill="white"/>
<path d="M10.1538 13.8462H8.92308V15.0769H10.1538V13.8462Z" fill="white"/>
<path d="M8.92308 7.69231H7.69231V8.92308H8.92308V7.69231Z" fill="white"/>
<path d="M16.3077 7.69231H15.0769V8.92308H16.3077V7.69231Z" fill="white"/>
<path d="M11.3846 12.6154H10.1538V13.8462H11.3846V12.6154Z" fill="white"/>
<path d="M11.3846 10.1538H10.1538V11.3846H11.3846V10.1538Z" fill="white"/>
<path d="M12.6154 11.3846H11.3846V12.6154H12.6154V11.3846Z" fill="white"/>
<path d="M8.92308 15.0769H7.69231V16.3077H8.92308V15.0769Z" fill="white"/>
<path d="M16.3077 15.0769H15.0769V16.3077H16.3077V15.0769Z" fill="white"/>
<path d="M18.7692 5.23077V4H5.23077V5.23077L18.7692 5.23077Z" fill="white"/>
<path d="M4 18.7692H5.23077V5.23077H4V18.7692Z" fill="white"/>
<path d="M18.7692 20V18.7692H5.23077V20H18.7692Z" fill="white"/>
<path d="M20 5.23077L18.7692 5.23077V18.7692H20V5.23077Z" fill="white"/>
</svg>
