<svg width="20" height="21" viewBox="0 0 20 21" fill="none" xmlns="http://www.w3.org/2000/svg">
<g clip-path="url(#clip0_239_2037)">
<path d="M2.48228 18.5465H15.2135L14.6055 16.6171C14.6957 16.6941 19.8215 21 19.8215 21V2.16562C19.7609 0.994875 18.7323 0 17.4573 0L2.48674 0.002625C1.21264 0.002625 0.178711 0.999252 0.178711 2.17V16.38C0.178711 17.6146 1.21085 18.5465 2.48228 18.5465ZM11.9001 4.97262L11.8707 4.98312L11.8814 4.97262H11.9001ZM5.08674 6.083C6.72334 4.91575 8.24034 4.97175 8.24034 4.97175L8.36267 5.08988C6.35996 5.558 5.45192 6.43475 5.45192 6.43475C5.54478 6.4155 9.58854 4.12912 14.4885 6.4925C14.4885 6.4925 13.5787 5.67263 11.6993 5.14762L11.8653 4.9875C12.1251 4.98837 13.5001 5.03562 14.9715 6.09C14.9715 6.09 16.618 8.84625 16.618 12.2325C16.5635 12.1677 15.5965 13.6902 13.1082 13.7427C13.1082 13.7427 12.6868 13.2755 12.3868 12.8678C13.8421 12.4583 14.3868 11.6392 14.3868 11.6392C11.5537 13.3875 9.07074 13.1145 6.10014 11.9333C6.07246 11.9333 6.05996 11.921 6.04568 11.907V11.9017C6.03139 11.8886 6.01889 11.8755 5.99121 11.8755H5.93764C5.7555 11.7582 5.63407 11.7005 5.63407 11.7005C5.63407 11.7005 6.17782 12.5195 7.57514 12.929C7.2082 13.3393 6.8448 13.8057 6.8448 13.8057C4.35728 13.748 3.45014 12.2255 3.45014 12.2255C3.45014 8.83398 5.08674 6.083 5.08674 6.083Z" fill="white"/>
<path d="M12.0605 11.1746C12.6952 11.1746 13.2122 10.6496 13.2122 10.0022C13.2122 9.35898 12.698 8.83398 12.0605 8.83398V8.83667C11.4284 8.83667 10.9105 9.3599 10.9087 10.0074C10.9087 10.6496 11.4256 11.1746 12.0605 11.1746Z" fill="white"/>
<path d="M7.93744 11.1746C8.57218 11.1746 9.08918 10.6496 9.08918 10.0022C9.08918 9.35898 8.57578 8.83398 7.94098 8.83398L7.93744 8.83667C7.30258 8.83667 6.78564 9.3599 6.78564 10.0074C6.78564 10.6496 7.30258 11.1746 7.93744 11.1746Z" fill="white"/>
</g>
<defs>
<clipPath id="clip0_239_2037">
<rect width="20" height="21" fill="white"/>
</clipPath>
</defs>
</svg>
